# xmcd
#
# Track frame offsets: 
#        150
#        16090
#        33554
#        45038
#        66945
#        87898
#        103618
#        120075
#        137568
#        160492
#        176539
#        193160
#        217258
#
# Disc length: 3141 seconds
#
# Revision: 0
# Processed by: cddbd v1.5.2PL0 Copyright (c) Steve Scherf et al.
# Submitted via: ExactAudioCopy v1.3
#
DISCID=a80c430d
DTITLE=Dani Wilde - Juice Me Up
DYEAR=2012
DGENRE=Blues
TTITLE0=Don't Go Making Me Cry
TTITLE1=Walk Out The Front Door
TTITLE2=Let Me Show You
TTITLE3=Crazy World
TTITLE4=Who's Loving You
TTITLE5=Mississippi Kisses
TTITLE6=All I Need
TTITLE7=The Burning Truth
TTITLE8=Falling
TTITLE9=Call On Me
TTITLE10=Juice Me Up
TTITLE11=Sweet Inspiration
TTITLE12=I Will Be Waiting
EXTD=
EXTT0=
EXTT1=
EXTT2=
EXTT3=
EXTT4=
EXTT5=
EXTT6=
EXTT7=
EXTT8=
EXTT9=
EXTT10=
EXTT11=
EXTT12=
PLAYORDER=
